<mxfile host="app.diagrams.net" modified="2023-07-06T07:42:12.452Z" agent="Mozilla/5.0 (X11; Linux x86_64; rv:109.0) Gecko/20100101 Firefox/114.0" etag="5zztYS3LYEdUwM9Xs-ZH" version="21.6.1" type="github">
  <diagram name="Page-1" id="QP7AJmqyXLkR_YBHq7NO">
    <mxGraphModel dx="768" dy="424" grid="1" gridSize="10" guides="1" tooltips="1" connect="1" arrows="1" fold="1" page="1" pageScale="1" pageWidth="850" pageHeight="1100" math="0" shadow="0">
      <root>
        <mxCell id="0" />
        <mxCell id="1" parent="0" />
        <mxCell id="S8NyWA7C1gXhe-_Ee9So-1" value="&lt;font style=&quot;font-size: 17px;&quot;&gt;Appplication&lt;/font&gt;" style="rounded=0;whiteSpace=wrap;html=1;fillColor=#FDDDE6;" vertex="1" parent="1">
          <mxGeometry x="280" y="40" width="240" height="60" as="geometry" />
        </mxCell>
        <mxCell id="S8NyWA7C1gXhe-_Ee9So-7" value="&lt;div style=&quot;font-size: 17px;&quot;&gt;&lt;font style=&quot;font-size: 17px;&quot;&gt;Original function from &lt;br&gt;&lt;/font&gt;&lt;/div&gt;&lt;div style=&quot;font-size: 17px;&quot;&gt;&lt;font style=&quot;font-size: 17px;&quot;&gt;glibc&lt;font style=&quot;font-size: 17px;&quot;&gt;&lt;br&gt;&lt;/font&gt;&lt;/font&gt;&lt;/div&gt;" style="rounded=0;whiteSpace=wrap;html=1;fillColor=#FC8EAC;" vertex="1" parent="1">
          <mxGeometry x="80" y="200" width="240" height="60" as="geometry" />
        </mxCell>
        <mxCell id="S8NyWA7C1gXhe-_Ee9So-8" value="&lt;font style=&quot;font-size: 17px;&quot;&gt;LD_PRELOAD&lt;/font&gt;" style="rounded=0;whiteSpace=wrap;html=1;fillColor=#FC8EAC;" vertex="1" parent="1">
          <mxGeometry x="480" y="200" width="240" height="60" as="geometry" />
        </mxCell>
        <mxCell id="S8NyWA7C1gXhe-_Ee9So-9" value="&lt;font style=&quot;font-size: 17px;&quot;&gt;Hooked function&lt;br&gt;&lt;/font&gt;" style="rounded=0;whiteSpace=wrap;html=1;fillColor=#DB7C96;" vertex="1" parent="1">
          <mxGeometry x="480" y="360" width="240" height="60" as="geometry" />
        </mxCell>
        <mxCell id="S8NyWA7C1gXhe-_Ee9So-13" value="" style="endArrow=classic;html=1;rounded=0;entryX=0.5;entryY=0;entryDx=0;entryDy=0;exitX=0;exitY=1;exitDx=0;exitDy=0;" edge="1" parent="1" source="S8NyWA7C1gXhe-_Ee9So-1" target="S8NyWA7C1gXhe-_Ee9So-7">
          <mxGeometry width="50" height="50" relative="1" as="geometry">
            <mxPoint x="360" y="240" as="sourcePoint" />
            <mxPoint x="410" y="190" as="targetPoint" />
          </mxGeometry>
        </mxCell>
        <mxCell id="S8NyWA7C1gXhe-_Ee9So-14" value="&lt;font style=&quot;font-size: 17px;&quot;&gt;Calls function&lt;br&gt;&lt;/font&gt;" style="endArrow=classic;html=1;rounded=0;entryX=0.5;entryY=0;entryDx=0;entryDy=0;exitX=1;exitY=1;exitDx=0;exitDy=0;" edge="1" parent="1" source="S8NyWA7C1gXhe-_Ee9So-1" target="S8NyWA7C1gXhe-_Ee9So-8">
          <mxGeometry width="50" height="50" relative="1" as="geometry">
            <mxPoint x="360" y="240" as="sourcePoint" />
            <mxPoint x="410" y="190" as="targetPoint" />
          </mxGeometry>
        </mxCell>
        <mxCell id="S8NyWA7C1gXhe-_Ee9So-15" value="" style="endArrow=classic;html=1;rounded=0;exitX=0.5;exitY=1;exitDx=0;exitDy=0;" edge="1" parent="1" source="S8NyWA7C1gXhe-_Ee9So-8">
          <mxGeometry width="50" height="50" relative="1" as="geometry">
            <mxPoint x="360" y="260" as="sourcePoint" />
            <mxPoint x="600" y="350" as="targetPoint" />
          </mxGeometry>
        </mxCell>
      </root>
    </mxGraphModel>
  </diagram>
</mxfile>
